# xmcd CD database file
#
# Track frame offsets:
#	150
#	22395
#	43897
#	66125
#
# Disc length: 1166 seconds
#
# Revision: 3
# Processed by: cddbd v1.5.2PL0 Copyright (c) Steve Scherf et al.
# Submitted via: CDex 1.70beta2
#
DISCID=38048c04
DTITLE=虹色スイッチ - 和心漸進∞ボクラノ祭
DYEAR=2011
DGENRE=JPop
TTITLE0=和心漸進∞ボクラノ祭
TTITLE1=コイノカケラ
TTITLE2=和心漸進∞ボクラノ祭 (instrumental)
TTITLE3=コイノカケラ (instrumental)
EXTD=YEAR: 2011
EXTT0=
EXTT1=
EXTT2=
EXTT3=
PLAYORDER=
